<svg width="13" height="16" viewBox="0 0 13 16" fill="none" xmlns="http://www.w3.org/2000/svg">
<path fill="current" stroke="current" d="M6.00015 4.875C6.1991 4.875 6.38991 4.78719 6.53059 4.63087C6.67127 4.47456 6.7503 4.26256 6.7503 4.0415C6.7503 3.82044 6.67127 3.60844 6.53059 3.45213C6.38991 3.29581 6.1991 3.208 6.00015 3.208C5.8012 3.208 5.61039 3.29581 5.46971 3.45213C5.32903 3.60844 5.25 3.82044 5.25 4.0415C5.25 4.26256 5.32903 4.47456 5.46971 4.63087C5.61039 4.78719 5.8012 4.875 6.00015 4.875Z" fill="#56799D"/>
<path fill="current" stroke="current" d="M11.7093 12.34V7H11.793C12.5967 7 12.927 5.853 12.27 5.336L7.00414 1.184C6.80124 1.024 6.55859 0.938049 6.30979 0.938049C6.06098 0.938049 5.81833 1.024 5.61544 1.184L0.348636 5.336C-0.305664 5.853 0.0219358 7 0.825636 7H0.909336V12.34C0.368436 12.726 0.00933573 13.4 0.00933573 14.167V15.5C0.00933573 15.6326 0.0567464 15.7598 0.141138 15.8536C0.225529 15.9473 0.339988 16 0.459336 16H12.1593C12.2787 16 12.3931 15.9473 12.4775 15.8536C12.5619 15.7598 12.6093 15.6326 12.6093 15.5V14.167C12.6093 13.4 12.2511 12.726 11.7093 12.341V12.34ZM6.13654 2C6.18718 1.96013 6.24772 1.93872 6.30979 1.93872C6.37185 1.93872 6.43239 1.96013 6.48304 2L11.5581 6H1.06144L6.13654 2ZM10.8093 7V12.006C10.7596 12.0019 10.7098 11.9999 10.6599 12H9.00934V7H10.8093ZM1.80934 12.006V7H3.60934V12H1.95964C1.90949 11.9999 1.85935 12.0019 1.80934 12.006ZM1.95964 13H10.6599C11.2395 13 11.7093 13.522 11.7093 14.167V15H0.909336V14.167C0.909336 13.522 1.38004 13 1.95964 13ZM5.85934 12H4.50934V7H5.85934V12ZM6.75934 12V7H8.10934V12H6.75934Z" fill="#56799D"/>
</svg>
