<svg width="18" height="19" viewBox="0 0 18 19" fill="current" xmlns="http://www.w3.org/2000/svg">
    <path fill="current" stroke="current" d="M17.0312 2.7207H1.84375C1.62005 2.72096 1.40559 2.80994 1.24742 2.96812C1.08924 3.1263 1.00026 3.34076 1 3.56445V14.8145C1.00026 15.0381 1.08924 15.2526 1.24742 15.4108C1.40559 15.569 1.62005 15.6579 1.84375 15.6582H17.0312C17.2549 15.6579 17.4694 15.569 17.6276 15.4108C17.7858 15.2526 17.8747 15.0381 17.875 14.8145V3.56445C17.8747 3.34076 17.7858 3.1263 17.6276 2.96812C17.4694 2.80994 17.2549 2.72096 17.0312 2.7207ZM16.75 3.8457V6.0957H2.125V3.8457H16.75ZM2.125 14.5332V8.3457H16.75V14.5332H2.125Z" fill="#56799D"/>
    <path fill="current" stroke="current" d="M3.09375 11.1582H5.34375V12.2832H3.09375V11.1582Z" fill="#56799D"/>
    <path fill="current" stroke="current" d="M6.46875 11.1582H8.71875V12.2832H6.46875V11.1582Z" fill="#56799D"/>
</svg>
