<svg width="18" height="18" viewBox="0 0 18 18" fill="none" xmlns="http://www.w3.org/2000/svg">
<path fill="currentColor" stroke="currentColor" d="M15.75 10.4999H12.525L13.0725 7.49995H15.75C15.9489 7.49995 16.1397 7.42093 16.2803 7.28028C16.421 7.13962 16.5 6.94886 16.5 6.74995C16.5 6.55103 16.421 6.36027 16.2803 6.21962C16.1397 6.07896 15.9489 5.99995 15.75 5.99995H13.3425L13.86 3.14245C13.8804 3.04218 13.8802 2.93878 13.8592 2.83862C13.8381 2.73847 13.7969 2.64367 13.7379 2.56007C13.6788 2.47646 13.6033 2.40582 13.516 2.35249C13.4287 2.29915 13.3313 2.26426 13.23 2.24995C13.1292 2.22594 13.0246 2.22307 12.9227 2.24151C12.8208 2.25994 12.7238 2.29929 12.6378 2.35707C12.5519 2.41484 12.4788 2.4898 12.4232 2.57721C12.3677 2.66462 12.3308 2.76259 12.315 2.86495L11.7525 5.99995H8.8425L9.36 3.14245C9.38045 3.04218 9.38016 2.93878 9.35915 2.83862C9.33815 2.73847 9.29687 2.64367 9.23785 2.56007C9.17884 2.47646 9.10334 2.40582 9.016 2.35249C8.92866 2.29915 8.83133 2.26426 8.73 2.24995C8.62925 2.22594 8.52461 2.22307 8.42269 2.24151C8.32078 2.25994 8.22378 2.29929 8.13782 2.35707C8.05186 2.41484 7.9788 2.4898 7.92324 2.57721C7.86768 2.66462 7.83082 2.76259 7.815 2.86495L7.2525 5.99995H3.75C3.55109 5.99995 3.36032 6.07896 3.21967 6.21962C3.07902 6.36027 3 6.55103 3 6.74995C3 6.94886 3.07902 7.13962 3.21967 7.28028C3.36032 7.42093 3.55109 7.49995 3.75 7.49995H6.975L6.4275 10.4999H3.75C3.55109 10.4999 3.36032 10.579 3.21967 10.7196C3.07902 10.8603 3 11.051 3 11.2499C3 11.4489 3.07902 11.6396 3.21967 11.7803C3.36032 11.9209 3.55109 11.9999 3.75 11.9999H6.1575L5.64 14.8574C5.61955 14.9577 5.61984 15.0611 5.64085 15.1613C5.66185 15.2614 5.70313 15.3562 5.76215 15.4398C5.82116 15.5234 5.89666 15.5941 5.984 15.6474C6.07134 15.7007 6.16867 15.7356 6.27 15.7499C6.37075 15.7739 6.47539 15.7768 6.57731 15.7584C6.67922 15.7399 6.77622 15.7006 6.86218 15.6428C6.94814 15.585 7.0212 15.5101 7.07676 15.4227C7.13232 15.3353 7.16918 15.2373 7.185 15.1349L7.7475 11.9999H10.6575L10.14 14.8574C10.1196 14.9577 10.1198 15.0611 10.1408 15.1613C10.1619 15.2614 10.2031 15.3562 10.2621 15.4398C10.3212 15.5234 10.3967 15.5941 10.484 15.6474C10.5713 15.7007 10.6687 15.7356 10.77 15.7499C10.8708 15.7739 10.9754 15.7768 11.0773 15.7584C11.1792 15.7399 11.2762 15.7006 11.3622 15.6428C11.4481 15.585 11.5212 15.5101 11.5768 15.4227C11.6323 15.3353 11.6692 15.2373 11.685 15.1349L12.2475 11.9999H15.75C15.9489 11.9999 16.1397 11.9209 16.2803 11.7803C16.421 11.6396 16.5 11.4489 16.5 11.2499C16.5 11.051 16.421 10.8603 16.2803 10.7196C16.1397 10.579 15.9489 10.4999 15.75 10.4999ZM8.025 10.4999L8.5725 7.49995H11.475L10.9275 10.4999H8.025Z" fill="#56799D"/>
</svg>
