<svg width="116" height="27" viewBox="0 0 116 27" fill="none" xmlns="http://www.w3.org/2000/svg">
<path d="M18.6281 0H5C2.23858 0 0 2.23857 0 5V14.0469H18.6281V0Z" fill="url(#paint0_linear)"/>
<path d="M11.3972 17.3581H0.00976562V21.7979C0.00976562 24.5594 2.24835 26.7979 5.00977 26.7979H11.3972V17.3581Z" fill="url(#paint1_linear)"/>
<path fill-rule="evenodd" clip-rule="evenodd" d="M0.0161983 21.455L0 13.2526C0.299669 10.9198 1.42545 8.92147 4.18727 8.86294H14.1411C19.5109 8.86294 19.1626 0.367896 13.8253 0H18.4904C23.1312 0.183948 25.4719 4.22244 25.5205 9.13886C25.561 14.674 23.6334 18.052 18.0935 18.1105H4.26826C2.37305 18.1523 0.899007 19.1389 0.0161983 21.455Z" fill="#44C7F4"/>
<path d="M30.7012 20.7448L32.3534 4.66611H38.857C39.6588 4.66611 40.3716 4.80825 41.0033 5.09253C41.635 5.37682 42.1615 5.76143 42.5988 6.24639C43.0362 6.73134 43.3682 7.29155 43.595 7.927C43.8299 8.56246 43.9433 9.23972 43.9433 9.95879C43.9433 10.8033 43.7894 11.606 43.4816 12.3752C43.1739 13.1444 42.7365 13.8133 42.1858 14.3986C41.6269 14.9839 40.9709 15.4438 40.2015 15.7866C39.4321 16.1294 38.5897 16.305 37.6745 16.305H34.775L34.3215 20.7616H30.7012V20.7448ZM35.0747 13.2531H37.5369C37.9499 13.2531 38.3306 13.1695 38.6707 13.0023C39.0109 12.8351 39.3106 12.6093 39.5454 12.3334C39.7884 12.0575 39.9828 11.7314 40.1205 11.3551C40.2582 10.9872 40.3311 10.6026 40.3311 10.2013C40.3311 9.86682 40.2825 9.54073 40.1772 9.23972C40.0719 8.93036 39.9261 8.66279 39.7317 8.43704C39.5373 8.21129 39.3106 8.02734 39.0352 7.90192C38.7598 7.7765 38.4521 7.70961 38.1119 7.70961H35.6417L35.0747 13.2531Z" fill="#101111"/>
<path d="M43.7391 18.278C43.7229 18.069 43.7148 17.8432 43.7148 17.5924C43.7148 17.1911 43.7391 16.7395 43.7796 16.2462L44.4438 9.67427H47.8454L47.2623 15.2763C47.2461 15.477 47.238 15.6693 47.238 15.8532C47.2461 16.4135 47.3271 16.89 47.489 17.2663C47.7077 17.7763 48.1694 18.0272 48.8902 18.0272C49.5948 18.0272 50.1456 17.7763 50.5262 17.2747C50.9069 16.773 51.1499 16.0874 51.239 15.2345L51.7897 9.67427H55.1913L54.0899 20.7446H50.6882L50.8421 19.1727C50.4857 19.7496 49.9836 20.2095 49.3438 20.5356C48.7039 20.8616 47.9507 21.0289 47.1084 21.0289C46.3633 21.0289 45.772 20.9118 45.3185 20.6693C44.8649 20.4269 44.5086 20.1259 44.2575 19.758C43.9497 19.3315 43.7796 18.8382 43.7391 18.278Z" fill="#101111"/>
<path d="M55.3254 16.8565H58.6703C58.6541 16.9652 58.646 17.0656 58.646 17.1743C58.646 17.5756 58.7594 17.8766 58.9943 18.0689C59.2859 18.3114 59.6908 18.4368 60.2092 18.4368C60.6465 18.4368 61.0029 18.3532 61.2782 18.186C61.5536 18.0188 61.6994 17.7512 61.6994 17.3917C61.6994 17.1994 61.6508 17.0321 61.5455 16.9067C61.4483 16.7729 61.2863 16.6559 61.0758 16.5555C60.8652 16.4552 60.5898 16.3465 60.2497 16.2462C59.9095 16.1458 59.5045 16.0121 59.0267 15.8448C58.5812 15.7027 58.1763 15.5522 57.8037 15.41C57.4311 15.2679 57.1153 15.084 56.8399 14.8749C56.5726 14.6659 56.3621 14.4067 56.2163 14.1057C56.0705 13.8047 55.9895 13.4284 55.9895 12.9936C55.9895 12.4 56.111 11.8816 56.354 11.4301C56.5969 10.9786 56.9371 10.5939 57.3825 10.2929C57.828 9.99194 58.3545 9.76618 58.9619 9.61568C59.5693 9.46517 60.2416 9.38992 60.9705 9.38992C61.8047 9.38992 62.5093 9.4819 63.0925 9.67421C63.6675 9.85815 64.1373 10.1257 64.4936 10.4518C64.8581 10.7946 65.1011 11.1876 65.2306 11.6391C65.3278 11.9819 65.3764 12.3331 65.3683 12.7094C65.3683 12.8348 65.3683 12.9602 65.3602 13.0856H62.0072C62.0153 13.0104 62.0153 12.9351 62.0153 12.8682C62.0153 12.5254 61.9262 12.2578 61.7561 12.0572C61.5536 11.8147 61.2135 11.6893 60.7518 11.6893C60.3711 11.6893 60.0553 11.7729 59.788 11.9401C59.5207 12.1073 59.3911 12.3582 59.3911 12.6843C59.3911 12.8682 59.4397 13.0104 59.5369 13.1358C59.6341 13.2612 59.7799 13.3615 59.9905 13.4535C60.193 13.5455 60.4602 13.6458 60.7842 13.7629C61.1082 13.8716 61.4969 14.0053 61.9505 14.1475C62.4121 14.2813 62.8333 14.4151 63.222 14.5656C63.6108 14.7161 63.951 14.9 64.2344 15.109C64.5179 15.3181 64.7366 15.5856 64.8824 15.895C65.0282 16.2044 65.1011 16.5973 65.1011 17.0739C65.1011 17.7846 64.9634 18.3867 64.6799 18.8967C64.4045 19.4067 64.0239 19.8164 63.5379 20.1425C63.052 20.4686 62.5012 20.7027 61.8776 20.8449C61.2539 20.987 60.5979 21.0623 59.9176 21.0623C58.3221 21.0706 57.1234 20.7111 56.3297 19.9837C55.6412 19.3566 55.293 18.487 55.293 17.3833C55.293 17.1994 55.3011 17.0321 55.3254 16.8565Z" fill="#101111"/>
<path d="M65.6875 20.7448L67.3397 4.66611H70.628L69.9477 11.2882C70.3121 10.7029 70.8143 10.2431 71.4379 9.90026C72.0615 9.55745 72.7905 9.39022 73.6328 9.39022C74.3212 9.39022 74.8881 9.50728 75.3174 9.74139C75.7548 9.97551 76.103 10.3016 76.3703 10.7113C76.67 11.1712 76.8481 11.6979 76.9129 12.2832C76.9453 12.5424 76.9534 12.8183 76.9453 13.1193C76.9453 13.5123 76.921 13.9387 76.8805 14.407L76.2407 20.7448H72.9524L73.5194 15.0508C73.5356 14.8585 73.5437 14.6829 73.5437 14.5157C73.5437 13.9722 73.4627 13.5123 73.3088 13.1361C73.0901 12.626 72.6366 12.3752 71.932 12.3836C71.2273 12.3836 70.6766 12.6344 70.2797 13.1444C69.8829 13.6545 69.6399 14.3317 69.5508 15.1846L68.9839 20.7365H65.6875V20.7448Z" fill="#101111"/>
<path d="M77.6934 20.7448L79.3456 4.66611H85.8492C86.651 4.66611 87.3637 4.80825 87.9955 5.09253C88.6272 5.37682 89.1537 5.76143 89.591 6.24639C90.0284 6.73134 90.3604 7.29155 90.5872 7.927C90.8221 8.56246 90.9355 9.23972 90.9355 9.95879C90.9355 10.8033 90.7816 11.606 90.4738 12.3752C90.1661 13.1444 89.7287 13.8133 89.178 14.3986C88.6191 14.9839 87.9631 15.4438 87.1937 15.7866C86.4242 16.1294 85.5819 16.305 84.6667 16.305H81.7672L81.3137 20.7616H77.6934V20.7448ZM82.0669 13.2531H84.529C84.9421 13.2531 85.3228 13.1695 85.6629 13.0023C86.0031 12.8351 86.3028 12.6093 86.5376 12.3334C86.7806 12.0575 86.975 11.7314 87.1127 11.3551C87.2504 10.9789 87.3232 10.6026 87.3232 10.2013C87.3232 9.86682 87.2747 9.54073 87.1694 9.23972C87.0641 8.93036 86.9183 8.66279 86.7239 8.43704C86.5295 8.21129 86.2947 8.02734 86.0274 7.90192C85.752 7.76814 85.4442 7.70961 85.1041 7.70961H82.6419L82.0669 13.2531Z" fill="#494949"/>
<path d="M90.1074 15.7867C90.1074 14.9004 90.2613 14.0643 90.561 13.2784C90.8687 12.5008 91.2818 11.8151 91.8082 11.2466C92.3347 10.678 92.9421 10.2181 93.6306 9.89204C94.319 9.56595 95.0479 9.39873 95.8011 9.39873C96.603 9.39873 97.2833 9.57431 97.8502 9.92549C98.4091 10.2767 98.814 10.7198 99.0489 11.2633L99.2028 9.68301H102.613L101.471 20.7533H98.0689L98.2228 19.1981C97.915 19.7082 97.4372 20.143 96.8135 20.5025C96.1818 20.862 95.461 21.0376 94.6511 21.0376C93.9869 21.0376 93.3714 20.9038 92.8125 20.6446C92.2537 20.3854 91.7758 20.0175 91.3709 19.5493C90.9659 19.0811 90.6582 18.5292 90.4395 17.8854C90.2127 17.2332 90.1074 16.5392 90.1074 15.7867ZM93.501 15.5108C93.501 16.1964 93.7035 16.7901 94.1165 17.2918C94.5215 17.7851 95.0965 18.0359 95.8173 18.0359C96.2142 18.0359 96.5949 17.9523 96.9431 17.7851C97.2914 17.6179 97.5911 17.3921 97.8421 17.1162C98.0932 16.8403 98.2876 16.5058 98.4253 16.1295C98.563 15.7533 98.6358 15.3603 98.6358 14.9422C98.6358 14.2566 98.4334 13.6546 98.0365 13.1529C97.6396 12.6513 97.0727 12.3921 96.3438 12.3921C95.9469 12.3921 95.5744 12.4757 95.2261 12.6429C94.8778 12.8101 94.5782 13.0359 94.3109 13.3285C94.0517 13.6128 93.8492 13.9473 93.7115 14.3235C93.5739 14.6998 93.501 15.1011 93.501 15.5108Z" fill="#494949"/>
<path d="M102.834 21.5897H106.154C106.146 21.6566 106.146 21.7235 106.146 21.7904C106.146 22.2335 106.276 22.6098 106.527 22.9108C106.818 23.262 107.345 23.4292 108.098 23.4292C108.811 23.4292 109.354 23.2285 109.734 22.8356C110.115 22.4426 110.358 21.7737 110.455 20.8539L110.649 18.9726C110.293 19.5663 109.799 20.0345 109.151 20.3606C108.503 20.6867 107.758 20.8539 106.916 20.8539C106.171 20.8539 105.579 20.7369 105.126 20.5028C104.672 20.2686 104.316 19.9676 104.065 19.5997C103.765 19.1733 103.595 18.68 103.555 18.1198C103.538 17.9108 103.53 17.685 103.53 17.4342C103.53 17.0328 103.554 16.5897 103.595 16.0964L104.259 9.67491H107.661L107.086 15.3522C107.061 15.5529 107.053 15.7452 107.053 15.9208C107.053 16.4559 107.134 16.9158 107.304 17.292C107.515 17.7853 107.977 18.0278 108.681 18.0278C109.394 18.0278 109.937 17.777 110.325 17.2669C110.714 16.7569 110.949 16.0796 111.038 15.2184L111.605 9.66655H115.007L113.889 20.67C113.695 22.5513 113.12 23.9225 112.18 24.767C111.233 25.6115 109.823 26.0379 107.936 26.0379C106.94 26.0379 106.106 25.9292 105.434 25.7202C104.753 25.5028 104.211 25.2018 103.806 24.8088C103.393 24.4158 103.117 23.9476 102.963 23.3958C102.858 23.0279 102.801 22.6349 102.801 22.2252C102.785 22.0329 102.801 21.8155 102.834 21.5897Z" fill="#494949"/>
<defs>
<linearGradient id="paint0_linear" x1="14.1691" y1="12.5719" x2="5.52739" y2="4.2783" gradientUnits="userSpaceOnUse">
<stop stop-color="#0080B3"/>
<stop offset="1" stop-color="#00ADEE"/>
</linearGradient>
<linearGradient id="paint1_linear" x1="7.24071" y1="16.9711" x2="4.9702" y2="24.0535" gradientUnits="userSpaceOnUse">
<stop stop-color="#0080B3"/>
<stop offset="1" stop-color="#00ADEE"/>
</linearGradient>
</defs>
</svg>
