<svg width="18" height="19" viewBox="0 0 18 19" fill="none" xmlns="http://www.w3.org/2000/svg">
<path d="M14.625 5.25195H3.375C2.44302 5.25195 1.6875 6.00747 1.6875 6.93945V13.6895C1.6875 14.6214 2.44302 15.377 3.375 15.377H14.625C15.557 15.377 16.3125 14.6214 16.3125 13.6895V6.93945C16.3125 6.00747 15.557 5.25195 14.625 5.25195Z" stroke="#56799D" stroke-linejoin="round"/>
<path d="M14.4619 5.25201V4.19732C14.4618 3.93865 14.4046 3.68318 14.2944 3.44914C14.1842 3.2151 14.0238 3.00827 13.8244 2.8434C13.6251 2.67852 13.3919 2.55967 13.1413 2.49533C12.8908 2.43098 12.6291 2.42273 12.375 2.47115L3.11625 4.05143C2.71418 4.12805 2.35144 4.34258 2.09062 4.65803C1.82979 4.97347 1.68722 5.37005 1.6875 5.77936V7.50201" stroke="#56799D" stroke-linejoin="round"/>
<path d="M12.9375 11.4395C12.715 11.4395 12.4975 11.3735 12.3125 11.2499C12.1275 11.1262 11.9833 10.9505 11.8981 10.745C11.813 10.5394 11.7907 10.3132 11.8341 10.095C11.8775 9.87675 11.9847 9.67629 12.142 9.51896C12.2993 9.36162 12.4998 9.25448 12.718 9.21107C12.9363 9.16766 13.1625 9.18994 13.368 9.27509C13.5736 9.36024 13.7493 9.50443 13.8729 9.68944C13.9965 9.87444 14.0625 10.0919 14.0625 10.3145C14.0625 10.6128 13.944 10.899 13.733 11.1099C13.522 11.3209 13.2359 11.4395 12.9375 11.4395Z" fill="#56799D"/>
</svg>
